<svg xmlns="http://www.w3.org/2000/svg" width="14.1" height="10.131" viewBox="0 0 14.1 10.131"><g transform="translate(-267.971 -566.916)"><path d="M281.312,575.5H268.471a.5.5,0,0,1,0-1h12.841a.5.5,0,0,1,0,1Z" transform="translate(0 -3.015)" fill="#041e42"/><path d="M6.164.5H0A.5.5,0,0,1-.5,0,.5.5,0,0,1,0-.5H6.164a.5.5,0,0,1,.5.5A.5.5,0,0,1,6.164.5Z" transform="translate(277.005 567.623) rotate(45)" fill="#041e42"/><path d="M6.164.5H0A.5.5,0,0,1-.5,0,.5.5,0,0,1,0-.5H6.164a.5.5,0,0,1,.5.5A.5.5,0,0,1,6.164.5Z" transform="translate(277.005 576.34) rotate(-45)" fill="#041e42"/></g></svg>